<svg xmlns="http://www.w3.org/2000/svg" xmlns:xlink="http://www.w3.org/1999/xlink" version="1.1" enable-background="new 0 0 44 44" width="44" height="44" style=""><rect id="backgroundrect" width="100%" height="100%" x="0" y="0" fill="none" stroke="none"/>
  
<g class="currentLayer" style=""><title>Layer 1</title><path fill="" fill-opacity="1" stroke="none" stroke-opacity="1" stroke-width="1" stroke-dasharray="none" stroke-linejoin="miter" stroke-linecap="butt" stroke-dashoffset="" fill-rule="nonzero" opacity="0.72" marker-start="" marker-mid="" marker-end="" d="M-2.5319061279296875,22.03191566467285 C-2.5319061279296875,9.600976438153516 8.208425363783022,-0.46808433532714844 21.468093872070312,-0.46808433532714844 C34.7277623803576,-0.46808433532714844 45.46809387207031,9.600976438153516 45.46809387207031,22.03191566467285 C45.46809387207031,34.46285489119219 34.7277623803576,44.53191566467285 21.468093872070312,44.53191566467285 C8.208425363783022,44.53191566467285 -2.5319061279296875,34.46285489119219 -2.5319061279296875,22.03191566467285 z" id="svg_8" class=""/><g class="" id="svg_10">
    <g id="svg_14">
      <g id="svg_3">
        <path d="m38.45212351659615,22.372341859637405 h-8.67021284599165 v-11.269503342324668 c0,-0.4451453820218244 -0.38755851421582704,-0.8049645244517625 -0.8670212845991644,-0.8049645244517625 h-20.80851083037996 c-3.8305000353591105,0 -6.9361702767933195,2.8833829265862114 -6.9361702767933195,6.439716195614096 s3.105670241434209,6.439716195614096 6.9361702767933195,6.439716195614096 v10.464538817872906 c0,0.4443404174973728 0.38755851421582704,0.8049645244517625 0.8670212845991644,0.8049645244517625 h29.478723676371608 c0.4794627703833391,0 0.8670212845991644,-0.36062410695439007 0.8670212845991644,-0.8049645244517625 v-10.464538817872906 c0,-0.4451453820218244 -0.38755851421582704,-0.8049645244517625 -0.8670212845991644,-0.8049645244517625 zm-30.345744960970773,-0.8049645244517625 c-2.8733085371616327,0 -5.20212770759499,-2.1629396772018845 -5.20212770759499,-4.829787146710572 s2.328819170433357,-4.829787146710572 5.20212770759499,-4.829787146710572 v9.659574293421144 zm19.941489545780794,-9.659574293421144 v9.659574293421144 c-2.8733085371616327,0 -5.20212770759499,-2.1629396772018845 -5.20212770759499,-4.829787146710572 s2.328819170433357,-4.829787146710572 5.20212770759499,-4.829787146710572 zm-18.207446976582464,0 h13.630441615183472 c-1.4435904388576097,1.1800779928462832 -2.3591649153943277,2.903507039697506 -2.3591649153943277,4.829787146710572 c0,2.4261630766976103 1.4461915027114072,4.536780059810131 3.5807979053945522,5.634751671162334 h-14.852074605183693 v-10.464538817872906 zm7.8031915613924845,20.929077635745813 h-7.8031915613924845 v-8.854609768969382 h7.8031915613924845 v8.854609768969382 zm19.941489545780794,0 h-18.207446976582464 v-8.854609768969382 h18.207446976582464 v8.854609768969382 z" fill="#FFFFFF" id="svg_4"/>
      </g>
    </g>
    <g id="svg_16">
      <g id="svg_6">
        <path fill-rule="evenodd" d="m38.52495330450248,17.650419959203365 c-0.23843085326477065,-0.38477304268794293 -0.7699149007240584,-0.5167872246980316 -1.1834840534778601,-0.2946170159493454 l-4.505042594777261,2.414893573355286 c-0.41530319532300025,0.22217020874868632 -0.5574946859972639,0.7148084977131647 -0.3173297901632949,1.0995815404011071 c0.23929787454936965,0.3855780072123943 0.7699149007240584,0.5175921892224832 1.1843510747624595,0.2946170159493454 l4.505042594777261,-2.414893573355286 c0.41356915275380235,-0.22217020874868632 0.5557606434280652,-0.7148084977131647 0.3164627688786959,-1.0995815404011071 zm-5.523792604181281,0.12315957224111986 l2.601063853797495,-4.182595669051355 c0.23929787454936965,-0.3855780072123943 0.09710638387510669,-0.8774113316524199 -0.3173297901632949,-1.0995815404011071 c-0.4144361740384011,-0.22217020874868632 -0.9450532002130896,-0.09015602673859753 -1.1834840534778601,0.2946170159493454 l-2.601063853797495,4.182595669051355 c-0.23929787454936965,0.3839680781634909 -0.09710638387510669,0.8774113316524199 0.3164627688786959,1.0995815404011071 c0.4144361740384011,0.22217020874868632 0.9441861789284908,0.09015602673859753 1.1843510747624595,-0.2946170159493454 z" fill="#FFFFFF" id="svg_7"/>
      </g>
    </g>
  </g></g></svg>