<?xml version="1.0" standalone="no"?>
<!DOCTYPE svg PUBLIC "-//W3C//DTD SVG 20010904//EN"
 "http://www.w3.org/TR/2001/REC-SVG-20010904/DTD/svg10.dtd">
<svg version="1.0" xmlns="http://www.w3.org/2000/svg"
 width="1159.000000pt" height="1159.000000pt" viewBox="0 0 1159.000000 1159.000000"
 preserveAspectRatio="xMidYMid meet">
<metadata>
Created by potrace 1.11, written by Peter Selinger 2001-2013
</metadata>
<g transform="translate(0.000000,1159.000000) scale(0.100000,-0.100000)"
fill="#000000" stroke="none">
<path d="M3380 10422 c27 -66 109 -263 119 -287 16 -36 58 -138 131 -314 l72
-175 -17 -51 -18 -52 -296 -1 c-163 0 -479 -1 -703 -1 l-407 -1 4 -97 c3 -54
7 -127 10 -163 3 -36 7 -112 10 -170 3 -58 7 -136 10 -175 2 -38 6 -106 9
-150 3 -44 8 -129 11 -190 3 -60 8 -139 10 -175 2 -36 7 -117 10 -180 4 -63 8
-132 10 -152 3 -34 1 -38 -19 -38 -25 0 -66 -30 -66 -48 0 -11 -99 -11 -1387
3 l-493 5 0 -2110 0 -2110 63 -1 c34 0 163 -2 287 -4 124 -2 396 -6 605 -9
663 -10 1463 -23 1960 -31 132 -2 329 -5 438 -6 109 -2 200 -6 203 -11 3 -4
13 -4 22 0 9 4 53 7 97 6 174 -4 612 -13 644 -14 l34 0 -29 -22 c-36 -28 -61
-55 -82 -90 -9 -16 -20 -28 -25 -28 -4 0 -6 -4 -3 -8 3 -5 -1 -19 -8 -33 -7
-13 -10 -31 -8 -38 3 -8 0 -11 -6 -7 -6 3 -14 1 -18 -5 -5 -8 -3 -9 5 -4 10 6
12 -7 7 -57 -4 -35 -8 -73 -10 -84 -2 -11 -7 -47 -10 -80 -4 -32 -13 -111 -21
-174 -8 -63 -17 -140 -20 -170 -4 -30 -8 -66 -10 -80 -2 -14 -6 -50 -10 -80
-3 -30 -8 -71 -11 -90 -2 -19 -6 -51 -8 -70 -5 -49 -15 -132 -26 -215 -5 -38
-12 -97 -15 -130 -4 -32 -8 -62 -10 -65 -1 -3 -6 -39 -9 -80 -4 -41 -9 -84
-11 -95 -3 -11 -7 -45 -10 -76 -2 -31 -7 -72 -10 -90 -31 -224 -32 -258 -3
-346 41 -125 151 -209 297 -228 30 -4 62 -8 72 -10 10 -2 46 -6 81 -10 35 -3
74 -7 88 -10 14 -2 50 -7 80 -10 30 -3 71 -8 90 -10 19 -2 55 -7 80 -10 25 -3
61 -8 80 -10 19 -3 62 -7 95 -10 33 -4 65 -8 72 -10 6 -2 54 -7 106 -11 99 -7
179 8 236 44 37 24 111 103 111 119 0 7 5 13 12 13 6 0 8 3 5 6 -3 4 -2 15 4
25 11 22 25 91 34 174 4 33 8 71 11 85 2 14 7 52 10 85 3 33 10 80 15 105 6
25 10 54 10 65 0 10 4 25 10 31 7 8 6 14 -1 19 -8 5 -5 11 7 21 14 11 15 13 3
14 -13 0 -13 1 0 10 13 9 13 10 0 10 -12 1 -11 3 3 11 12 7 15 15 9 22 -5 7
-9 20 -9 30 1 35 24 -6 52 -91 24 -75 85 -182 108 -191 5 -2 17 -11 27 -21 10
-10 28 -21 39 -25 12 -3 18 -11 15 -17 -4 -7 -2 -8 4 -4 6 4 21 2 33 -5 33
-17 123 -25 177 -14 23 4 151 42 252 75 30 10 116 37 190 60 74 23 191 60 260
82 69 22 141 44 160 50 162 49 256 154 275 306 7 54 -4 95 -116 432 -50 151
-92 280 -93 285 -2 6 -6 17 -9 25 -27 72 -160 497 -155 494 4 -2 10 0 13 6 4
6 3 10 -2 9 -20 -4 -34 2 -28 11 4 6 1 17 -5 25 -7 8 -9 15 -4 15 5 0 2 5 -6
10 -11 7 -12 10 -2 10 10 0 10 4 -2 16 -9 8 -16 23 -16 33 0 9 -5 22 -12 29
-18 18 342 17 361 0 11 -10 13 -10 7 0 -5 8 2 12 23 12 18 0 31 -5 31 -12 0
-9 3 -10 8 -2 4 7 37 10 87 8 98 -4 96 -4 170 -3 58 1 615 -7 1150 -16 143 -2
429 -7 635 -10 608 -9 944 -14 1298 -20 l332 -6 0 2126 0 2125 -1029 0 -1029
0 -6 23 c-12 45 -32 60 -81 59 l-45 -1 0 805 0 805 -502 -1 c-615 -2 -568 -3
-568 13 -1 6 -15 51 -34 98 -37 99 -41 71 43 309 29 80 54 152 56 160 2 8 25
74 50 145 25 72 47 134 48 139 2 10 -52 11 -1363 21 -454 3 -1104 8 -1445 10
-341 3 -925 7 -1297 10 l-677 4 19 -47z m1906 -7008 c-11 -8 -15 -14 -10 -14
6 0 14 4 20 10 13 13 56 0 50 -16 -3 -8 0 -11 8 -8 7 3 20 -2 29 -10 9 -9 20
-16 26 -16 6 0 11 -6 11 -12 0 -9 4 -8 10 2 8 12 10 12 10 1 0 -11 3 -11 15
-1 18 15 21 13 30 -23 5 -19 3 -27 -6 -27 -10 0 -11 -2 -2 -8 9 -5 7 -17 -5
-44 -67 -146 -272 -93 -272 70 0 13 4 20 10 17 6 -3 7 1 4 9 -3 9 -1 16 6 16
6 0 8 5 5 10 -7 11 18 39 49 56 28 14 36 6 12 -12z"/>
<path d="M5305 3390 c-3 -6 1 -7 9 -4 18 7 21 14 7 14 -6 0 -13 -4 -16 -10z"/>
<path d="M5256 3368 c3 -4 11 -5 19 -1 21 7 19 12 -4 10 -11 0 -18 -5 -15 -9z"/>
<path d="M5335 3331 c-3 -5 -2 -12 3 -15 5 -3 9 1 9 9 0 17 -3 19 -12 6z"/>
<path d="M5396 3297 c3 -10 9 -15 12 -12 3 3 0 11 -7 18 -10 9 -11 8 -5 -6z"/>
<path d="M4435 3651 c-3 -5 -2 -12 3 -15 5 -3 9 1 9 9 0 17 -3 19 -12 6z"/>
</g>
</svg>
